# xmcd
#
# Track frame offsets:
#	150
#	15858
#	34256
#	53239
#	69494
#	83302
#	100485
#	117198
#	133078
#	148936
#	166751
#	183374
#	201349
#	213374
#	230919
#	248064
#	266222
#	278707
#	293582
#	308997
#
# Disc length: 4329 seconds
#
# Revision: 1
# Processed by: cddbd v1.5.2PL0 Copyright (c) Steve Scherf et al.
# Submitted via: audiograbber 1.83.01
#
DISCID=2410e714
DTITLE=Various Artist - Halland's Country Hits Volume 1
DYEAR=1900
DGENRE=
TTITLE0=Steve Wariner - Where Did I Go Wrong
TTITLE1=Lari White - Lead Me Not
TTITLE2=Keith Whitley - Don't Close Your Eyes
TTITLE3=Keith Whitley - I'm No Stranger To The Rain
TTITLE4=Keith Whitley - I'm Over You
TTITLE5=Keith Whitley - Somebody's Doin' Me Right
TTITLE6=Keith Whitley - When You Say Nothing At All
TTITLE7=Keith Whitley With Lorrie Morgan - When A Tear Becomes A Rose
TTITLE8=Michelle Wright - One Time Around
TTITLE9=Michelle Wright - Take It Like A Man
TTITLE10=Trisha Yearwood - Like We Never Had A Broken Heart
TTITLE11=Trisha Yearwood - She's In Love With The Boy
TTITLE12=Trisha Yearwood - That's What I Like About You
TTITLE13=Trisha Yearwood - The Song Remembers When
TTITLE14=Trisha Yearwood - The Woman Before Me
TTITLE15=Trisha Yearwood - Walkaway Joe
TTITLE16=Trisha Yearwood - Wrong Side Of Memphis
TTITLE17=Dwight Yoakam - A Thousand Miles From Nowhere
TTITLE18=Dwight Yoakam - Fast As You
TTITLE19=Zero Vu Level Reference Tone - Zero Vu Level Reference Tone
EXTD=
EXTT0=
EXTT1=
EXTT2=
EXTT3=
EXTT4=
EXTT5=
EXTT6=
EXTT7=
EXTT8=
EXTT9=
EXTT10=
EXTT11=
EXTT12=
EXTT13=
EXTT14=
EXTT15=
EXTT16=
EXTT17=
EXTT18=
EXTT19=
PLAYORDER=
